<?xml version="1.0" encoding="utf-8"?>
<!-- Generator: Adobe Illustrator 24.3.0, SVG Export Plug-In . SVG Version: 6.00 Build 0)  -->
<svg version="1.1" id="Layer_1" focusable="false" xmlns="http://www.w3.org/2000/svg" xmlns:xlink="http://www.w3.org/1999/xlink"
	 x="0px" y="0px" viewBox="0 0 137.1 18" style="enable-background:new 0 0 137.1 18;" xml:space="preserve">
<style type="text/css">
	.st0{fill:#FFFFFF;}
</style>
<path class="st0" d="M30.3,12l-0.7,2.3c0,0.1-0.1,0.1-0.2,0.1h-1.8c-0.1,0-0.1-0.1-0.1-0.2l3.1-9c0.1-0.3,0.2-0.6,0.2-0.9
	c0-0.1,0-0.1,0.1-0.1h2.5c0.1,0,0.1,0,0.1,0.1l3.5,9.9c0,0.1,0,0.1-0.1,0.1h-2c-0.1,0-0.2,0-0.2-0.1L33.9,12H30.3z M33.3,10.1
	c-0.3-1-0.9-2.9-1.2-4h0c-0.2,1-0.8,2.7-1.2,4H33.3z"/>
<path class="st0" d="M37.2,10.6c0-2.2,1.7-4.1,4.5-4.1c0.1,0,0.3,0,0.5,0V3.5c0-0.1,0-0.1,0.1-0.1c0,0,0,0,0,0h2
	c0.1,0,0.1,0,0.1,0.1v9.2c0,0.4,0,0.8,0.1,1.1c0,0.1,0,0.1-0.1,0.1c-1,0.4-2,0.6-3.1,0.6C38.9,14.6,37.2,13.3,37.2,10.6z M42.2,8.4
	c-0.2-0.1-0.4-0.1-0.6-0.1c-1.2,0-2.2,0.7-2.2,2.2c0,1.5,0.9,2.2,2.1,2.2c0.2,0,0.5,0,0.7-0.1L42.2,8.4z"/>
<path class="st0" d="M53.3,10.5c0,2.4-1.6,4.1-3.8,4.1c-2.7,0-3.8-2-3.8-4c0-2.2,1.5-4,3.9-4C52,6.5,53.3,8.4,53.3,10.5z M47.8,10.5
	c0,1.4,0.6,2.2,1.7,2.2c0.9,0,1.6-0.8,1.6-2.2c0-1.2-0.5-2.2-1.7-2.2C48.5,8.4,47.8,9.2,47.8,10.5z"/>
<path class="st0" d="M56.5,3.4c0.1,0,0.2,0,0.2,0.1v3.2c0.4-0.1,0.9-0.2,1.3-0.2c2.3,0,3.7,1.6,3.7,3.7c0,2.9-2.3,4.3-4.7,4.3
	c-0.8,0-1.6-0.1-2.4-0.4c-0.1,0-0.1-0.1-0.1-0.2V3.5c0-0.1,0-0.1,0.1-0.1L56.5,3.4z M57.6,8.4c-0.3,0-0.6,0-0.9,0.1v4.2
	c0.2,0,0.4,0.1,0.6,0.1c1.2,0,2.3-0.7,2.3-2.3C59.5,9,58.7,8.4,57.6,8.4L57.6,8.4z"/>
<path class="st0" d="M64.7,11.1c0.1,0.9,0.7,1.6,2.2,1.6c0.7,0,1.3-0.1,1.9-0.4c0,0,0.1,0,0.1,0.1v1.5c0,0.1,0,0.2-0.1,0.2
	c-0.6,0.3-1.3,0.5-2.4,0.5c-2.9,0-3.9-2-3.9-3.9c0-2.1,1.3-4.1,3.8-4.1c2.3,0,3.3,1.8,3.3,3.4c0,0.3,0,0.7-0.1,1
	c0,0.1-0.1,0.1-0.1,0.1c-0.5,0.1-1.1,0.1-1.6,0.1L64.7,11.1z M66.8,9.6c0.3,0,0.5,0,0.8,0V9.5c0-0.7-0.6-1.2-1.3-1.2c0,0,0,0,0,0
	c-1,0-1.4,0.7-1.5,1.4L66.8,9.6z"/>
<polygon class="st0" points="13.2,0 20.8,0 20.8,18 "/>
<polygon class="st0" points="7.9,0 0.4,0 0.4,18 "/>
<polygon class="st0" points="10.6,6.6 15.4,18 12.2,18 10.8,14.4 7.3,14.4 "/>
<g>
	<path class="st0" d="M76.9,14.9c-1.4,0-2.6-0.1-3.6-0.2v-11h3.7c1.2,0,2.2,0.3,2.8,0.8c0.7,0.5,1,1.2,1,2.2c0,1.1-0.4,1.9-1.3,2.3
		v0.1c0.5,0.2,0.9,0.6,1.2,1c0.3,0.4,0.4,1,0.4,1.5c0,1-0.4,1.8-1.1,2.4C79.4,14.6,78.4,14.9,76.9,14.9z M75.8,8.3h1
		c1.1,0,1.7-0.4,1.7-1.3c0-0.8-0.5-1.2-1.4-1.2h-1.3V8.3z M77,12.8c0.6,0,1-0.1,1.3-0.3c0.3-0.2,0.4-0.6,0.4-1c0-0.5-0.2-0.8-0.5-1
		c-0.3-0.2-0.8-0.3-1.5-0.3h-1v2.7C76.1,12.8,76.5,12.8,77,12.8z"/>
	<path class="st0" d="M85.6,14.9c-0.9,0-1.6-0.2-2.1-0.7c-0.5-0.5-0.8-1.2-0.8-2.2V6.4H85v5.4c0,0.4,0.1,0.7,0.3,0.8
		c0.2,0.2,0.5,0.2,0.9,0.2c0.6,0,1.1-0.1,1.6-0.4V6.4H90V12l0.1,2.8h-2C88,14.5,88,14.2,88,14h-0.1C87.2,14.6,86.5,14.9,85.6,14.9z"
		/>
	<path class="st0" d="M94,14.9c-1,0-1.8-0.2-2.4-0.6l0.3-1.9c0.6,0.3,1.3,0.5,2,0.5c0.7,0,1-0.2,1-0.6c0-0.2-0.1-0.3-0.3-0.5
		c-0.2-0.1-0.5-0.3-0.8-0.4s-0.6-0.3-0.9-0.5s-0.6-0.5-0.8-0.8c-0.2-0.3-0.3-0.7-0.3-1.2c0-0.8,0.3-1.4,0.9-2S94,6.2,95,6.2
		c0.7,0,1.3,0.1,1.9,0.2l0,1.9c-0.5-0.2-1.1-0.3-1.7-0.3c-0.8,0-1.2,0.2-1.2,0.7c0,0.2,0.1,0.3,0.3,0.5c0.2,0.1,0.5,0.3,0.8,0.4
		s0.6,0.3,1,0.5c0.3,0.2,0.6,0.5,0.8,0.8c0.2,0.4,0.3,0.8,0.3,1.2c0,0.8-0.3,1.4-0.9,1.9C95.8,14.7,95,14.9,94,14.9z"/>
	<path class="st0" d="M100,5.4c-0.4,0-0.7-0.1-1-0.4c-0.2-0.3-0.4-0.6-0.4-1c0-0.4,0.1-0.7,0.4-0.9c0.2-0.3,0.6-0.4,1-0.4
		c0.4,0,0.7,0.1,1,0.4s0.4,0.6,0.4,0.9c0,0.4-0.1,0.7-0.4,0.9S100.4,5.4,100,5.4z M98.9,14.8V6.4h2.2v8.4H98.9z"/>
	<path class="st0" d="M103.2,14.8V9.2l-0.1-2.8h2c0.1,0.3,0.1,0.6,0.1,0.9c0.7-0.7,1.5-1,2.5-1c0.9,0,1.5,0.2,2,0.7
		c0.5,0.5,0.7,1.2,0.7,2.2v5.7h-2.2V9.3c0-0.4-0.1-0.7-0.3-0.8c-0.2-0.2-0.5-0.2-0.9-0.2c-0.6,0-1.1,0.1-1.6,0.4v6.1H103.2z"/>
	<path class="st0" d="M116.5,14.9c-1.3,0-2.4-0.4-3.2-1.2c-0.8-0.8-1.2-1.9-1.2-3.2c0-1.3,0.4-2.3,1.1-3.1c0.7-0.8,1.7-1.2,2.9-1.2
		c1.2,0,2,0.3,2.6,0.9s0.9,1.4,0.9,2.5c0,0.3,0,0.7,0,1.1l-5,0.4c0.1,0.6,0.4,1.1,0.8,1.4s1,0.5,1.7,0.5c0.9,0,1.6-0.2,2.2-0.6v1.8
		C118.5,14.7,117.6,14.9,116.5,14.9z M114.4,9.7l3-0.3V9.3c0-0.9-0.5-1.4-1.4-1.4C115,7.9,114.4,8.5,114.4,9.7z"/>
	<path class="st0" d="M123,14.9c-1,0-1.8-0.2-2.4-0.6l0.3-1.9c0.6,0.3,1.3,0.5,2,0.5c0.7,0,1-0.2,1-0.6c0-0.2-0.1-0.3-0.3-0.5
		c-0.2-0.1-0.5-0.3-0.8-0.4s-0.6-0.3-0.9-0.5s-0.6-0.5-0.8-0.8c-0.2-0.3-0.3-0.7-0.3-1.2c0-0.8,0.3-1.4,0.9-2s1.4-0.8,2.5-0.8
		c0.7,0,1.3,0.1,1.9,0.2l0,1.9c-0.5-0.2-1.1-0.3-1.7-0.3c-0.8,0-1.2,0.2-1.2,0.7c0,0.2,0.1,0.3,0.3,0.5c0.2,0.1,0.5,0.3,0.8,0.4
		s0.6,0.3,1,0.5c0.3,0.2,0.6,0.5,0.8,0.8c0.2,0.4,0.3,0.8,0.3,1.2c0,0.8-0.3,1.4-0.9,1.9C124.8,14.7,124,14.9,123,14.9z"/>
	<path class="st0" d="M129.7,14.9c-1,0-1.8-0.2-2.4-0.6l0.3-1.9c0.6,0.3,1.3,0.5,2,0.5c0.7,0,1-0.2,1-0.6c0-0.2-0.1-0.3-0.3-0.5
		c-0.2-0.1-0.5-0.3-0.8-0.4s-0.6-0.3-0.9-0.5s-0.6-0.5-0.8-0.8c-0.2-0.3-0.3-0.7-0.3-1.2c0-0.8,0.3-1.4,0.9-2s1.4-0.8,2.5-0.8
		c0.7,0,1.3,0.1,1.9,0.2l0,1.9c-0.5-0.2-1.1-0.3-1.7-0.3c-0.8,0-1.2,0.2-1.2,0.7c0,0.2,0.1,0.3,0.3,0.5c0.2,0.1,0.5,0.3,0.8,0.4
		s0.6,0.3,1,0.5c0.3,0.2,0.6,0.5,0.8,0.8c0.2,0.4,0.3,0.8,0.3,1.2c0,0.8-0.3,1.4-0.9,1.9C131.5,14.7,130.7,14.9,129.7,14.9z"/>
</g>
</svg>
